<?xml version="1.0" encoding="UTF-8" standalone="no"?>
<!-- Created with Inkscape (http://www.inkscape.org/) -->

<svg
   xmlns="http://www.w3.org/2000/svg"
   xmlns:svg="http://www.w3.org/2000/svg">
  <sodipodi:namedview
     id="namedview7"
     pagecolor="#ffffff"
     bordercolor="#666666"
     borderopacity="1.0"
     inkscape:pageshadow="2"
     inkscape:pageopacity="0.0"
     inkscape:pagecheckerboard="0"
     inkscape:document-units="mm"
     showgrid="false"
     inkscape:zoom="0.7483165"
     inkscape:cx="396.89089"
     inkscape:cy="561.92801"
     inkscape:window-width="1920"
     inkscape:window-height="1026"
     inkscape:window-x="0"
     inkscape:window-y="31"
     inkscape:window-maximized="1"
     inkscape:current-layer="layer1" />
  <defs
     id="defs2" />
  <g
     inkscape:label="Calque 1"
     inkscape:groupmode="layer"
     id="layer1">
    <path
       style="fill:#deaa87;stroke:#ffffff;stroke-width:0.264583px;stroke-linecap:butt;stroke-linejoin:miter;stroke-opacity:1"
       d="m 73.43463,90.453677 c 6.104614,-5.405279 14.059304,-7.170068 22.019556,-5.84336 0.715388,0.119232 1.777687,-0.232436 2.474999,0 0.751298,0.250434 1.43859,1.072867 2.121425,1.414285 0.21083,0.105416 0.49632,-0.105415 0.70715,0 0.29815,0.14908 0.42129,0.535636 0.70714,0.707144 0.31958,0.191752 0.75061,0.146836 1.06071,0.353571 0.0981,0.06538 0,0.235715 0,0.353571 0.11786,0.117858 0.2148,0.261252 0.35358,0.353573 0.84954,0.565169 0.90209,1.101447 1.40541,2.108091 0.34112,0.682242 0.75118,1.149321 1.05629,1.763443 0.39354,0.792091 0.14651,1.634308 0.35357,2.45736 0.56994,2.265484 0.19996,-1.27527 0.70714,1.767856 0.41767,2.505982 0.12511,5.738779 -0.35357,8.132139 -0.27696,1.38483 0.15759,1.2951 -0.35357,2.82857 -0.48389,1.4517 -1.34577,2.24296 -2.12143,3.53572 -0.96833,1.6139 -1.20311,3.02376 -2.82857,4.24286 -3.290038,2.46753 0.49204,-0.19682 -1.767855,0.70714 -0.875668,-0.19602 -0.887212,0.79718 -1.414285,1.06071 -0.928706,0.46435 -2.187866,1.08286 -3.182144,1.41429 -3.889589,1.29653 -8.683316,1.57125 -12.767609,1.06071 -3.704595,-0.46307 -7.115588,-1.87281 -10.607143,-3.18214 -1.046901,-0.39259 -2.154454,-0.62028 -3.182144,-1.06071 -0.873366,-0.3743 -1.601631,-1.03999 -2.475,-1.41429 -0.446645,-0.19142 -0.979648,-0.13625 -1.414285,-0.35357 -0.298156,-0.14908 -0.408985,-0.55807 -0.707141,-0.70714 -0.210831,-0.10542 -0.488289,0.0875 -0.707144,0 -1.65903,-0.66361 -5.43883,-4.26896 -6.364285,-5.65715 -0.206735,-0.3101 -0.161822,-0.74113 -0.353573,-1.06071 -0.797449,-1.32908 -2.490555,-2.13698 -3.535714,-3.18214 -0.600954,-0.60096 -0.88337,-1.45779 -1.414286,-2.12143 C 49.84012,98.867403 48.400655,97.704671 47.669711,96.242782 46.999768,94.9029 46.39393,93.62197 45.548282,92.353497 c -1.457957,-2.186938 -2.280936,-5.177983 -1.414285,-7.7563 0.157287,-0.467937 0.835017,-0.962896 1.060715,-1.414286 0.388397,-0.776798 0.700913,-1.847506 1.75029,-2.108221 1.748202,-0.43434 5.881187,-1.330642 7.751683,-0.707144 0.772176,-0.135768 0.118739,0.586047 0.35357,0.70272 0.656911,0.326377 1.801218,-0.328043 2.457284,0 0.976952,0.48849 1.146222,0.837026 2.461619,1.056257 0.48558,0.08093 1.292662,-0.156086 1.758945,0 0.474165,0.158723 0.613476,0.837096 1.060712,1.060714 0.658299,0.32915 1.533009,0.08702 2.466068,0.707144 0.669803,0.445159 0.895746,1.249331 1.401185,1.754767 0.430834,0.430834 1.337024,0.62988 1.767859,1.060715 0.08334,0.08334 -0.06538,0.255508 0,0.35357 0.518543,0.777817 1.609031,1.259856 2.117024,1.767859 0.377851,0.377857 0.793451,1.124199 1.060714,1.409893 0.420198,0.449175 1.223949,0.126344 1.832965,0.212492 z"
       id="path225" />
  </g>
</svg>
